<mxfile host="app.diagrams.net" modified="2020-09-06T05:20:34.944Z" agent="5.0 (Windows NT 10.0; Win64; x64) AppleWebKit/537.36 (KHTML, like Gecko) Chrome/85.0.4183.83 Safari/537.36" etag="9Vg3Vbc4YF2U_Omf912w" version="13.6.6" type="github" pages="7">
  <diagram id="4H6FuaX55NaAWb_NnQRl" name="inversion">
    <mxGraphModel dx="982" dy="980" grid="1" gridSize="10" guides="1" tooltips="1" connect="1" arrows="1" fold="1" page="1" pageScale="1" pageWidth="827" pageHeight="1169" math="0" shadow="0">
      <root>
        <mxCell id="0" />
        <mxCell id="1" parent="0" />
        <mxCell id="XRjCzqOPCwnfIwNAQ5aq-32" value="Use" style="endArrow=open;endSize=12;dashed=1;html=1;entryX=0.5;entryY=0;entryDx=0;entryDy=0;exitX=0.477;exitY=0.995;exitDx=0;exitDy=0;exitPerimeter=0;" parent="1" source="XRjCzqOPCwnfIwNAQ5aq-5" target="XRjCzqOPCwnfIwNAQ5aq-34" edge="1">
          <mxGeometry width="160" relative="1" as="geometry">
            <mxPoint x="170" y="370" as="sourcePoint" />
            <mxPoint x="366.03999999999996" y="300.00800000000004" as="targetPoint" />
          </mxGeometry>
        </mxCell>
        <mxCell id="XRjCzqOPCwnfIwNAQ5aq-34" value="&lt;p style=&quot;margin: 0px ; margin-top: 4px ; text-align: center&quot;&gt;&lt;i&gt;&amp;lt;&amp;lt;Interface&amp;gt;&amp;gt;&lt;/i&gt;&lt;br&gt;&lt;b&gt;File&lt;/b&gt;&lt;/p&gt;&lt;hr size=&quot;1&quot;&gt;&lt;p style=&quot;margin: 0px ; margin-left: 4px&quot;&gt;&lt;span&gt;+ read()&lt;/span&gt;&lt;br&gt;&lt;/p&gt;&lt;p style=&quot;margin: 0px ; margin-left: 4px&quot;&gt;+ write()&lt;/p&gt;" style="verticalAlign=top;align=left;overflow=fill;fontSize=12;fontFamily=Helvetica;html=1;" parent="1" vertex="1">
          <mxGeometry x="90" y="386" width="190" height="90" as="geometry" />
        </mxCell>
        <mxCell id="XRjCzqOPCwnfIwNAQ5aq-2" value="NormalFileStrategy" style="swimlane;fontStyle=1;align=center;verticalAlign=top;childLayout=stackLayout;horizontal=1;startSize=26;horizontalStack=0;resizeParent=1;resizeParentMax=0;resizeLast=0;collapsible=1;marginBottom=0;" parent="1" vertex="1">
          <mxGeometry x="80" y="250" width="220" height="90" as="geometry" />
        </mxCell>
        <mxCell id="XRjCzqOPCwnfIwNAQ5aq-3" value="- File file" style="text;strokeColor=none;fillColor=none;align=left;verticalAlign=top;spacingLeft=4;spacingRight=4;overflow=hidden;rotatable=0;points=[[0,0.5],[1,0.5]];portConstraint=eastwest;" parent="XRjCzqOPCwnfIwNAQ5aq-2" vertex="1">
          <mxGeometry y="26" width="220" height="26" as="geometry" />
        </mxCell>
        <mxCell id="XRjCzqOPCwnfIwNAQ5aq-4" value="" style="line;strokeWidth=1;fillColor=none;align=left;verticalAlign=middle;spacingTop=-1;spacingLeft=3;spacingRight=3;rotatable=0;labelPosition=right;points=[];portConstraint=eastwest;" parent="XRjCzqOPCwnfIwNAQ5aq-2" vertex="1">
          <mxGeometry y="52" width="220" height="8" as="geometry" />
        </mxCell>
        <mxCell id="XRjCzqOPCwnfIwNAQ5aq-5" value="+ someMethod()" style="text;strokeColor=none;fillColor=none;align=left;verticalAlign=top;spacingLeft=4;spacingRight=4;overflow=hidden;rotatable=0;points=[[0,0.5],[1,0.5]];portConstraint=eastwest;" parent="XRjCzqOPCwnfIwNAQ5aq-2" vertex="1">
          <mxGeometry y="60" width="220" height="30" as="geometry" />
        </mxCell>
        <mxCell id="XRjCzqOPCwnfIwNAQ5aq-41" value="&lt;p style=&quot;margin: 0px ; margin-top: 4px ; text-align: center&quot;&gt;&lt;i&gt;&amp;lt;&amp;lt;Interface&amp;gt;&amp;gt;&lt;/i&gt;&lt;br&gt;&lt;b&gt;ZipFile&lt;/b&gt;&lt;/p&gt;&lt;hr size=&quot;1&quot;&gt;&lt;p style=&quot;margin: 0px ; margin-left: 4px&quot;&gt;&lt;span&gt;+ zip()&lt;/span&gt;&lt;/p&gt;&lt;p style=&quot;margin: 0px ; margin-left: 4px&quot;&gt;+ unZip()&lt;/p&gt;" style="verticalAlign=top;align=left;overflow=fill;fontSize=12;fontFamily=Helvetica;html=1;" parent="1" vertex="1">
          <mxGeometry x="360" y="386" width="190" height="84" as="geometry" />
        </mxCell>
        <mxCell id="XRjCzqOPCwnfIwNAQ5aq-43" value="" style="endArrow=block;dashed=1;endFill=0;endSize=12;html=1;entryX=0.473;entryY=1.034;entryDx=0;entryDy=0;exitX=0.5;exitY=0;exitDx=0;exitDy=0;entryPerimeter=0;" parent="1" source="XRjCzqOPCwnfIwNAQ5aq-18" target="XRjCzqOPCwnfIwNAQ5aq-41" edge="1">
          <mxGeometry width="160" relative="1" as="geometry">
            <mxPoint x="350" y="590" as="sourcePoint" />
            <mxPoint x="370" y="470" as="targetPoint" />
          </mxGeometry>
        </mxCell>
        <mxCell id="XRjCzqOPCwnfIwNAQ5aq-48" value="Use" style="endArrow=open;endSize=12;dashed=1;html=1;entryX=0.472;entryY=-0.009;entryDx=0;entryDy=0;exitX=0.493;exitY=1.077;exitDx=0;exitDy=0;exitPerimeter=0;entryPerimeter=0;" parent="1" source="XRjCzqOPCwnfIwNAQ5aq-47" target="XRjCzqOPCwnfIwNAQ5aq-41" edge="1">
          <mxGeometry width="160" relative="1" as="geometry">
            <mxPoint x="190" y="480" as="sourcePoint" />
            <mxPoint x="420" y="360" as="targetPoint" />
          </mxGeometry>
        </mxCell>
        <mxCell id="XRjCzqOPCwnfIwNAQ5aq-49" value="Extends" style="endArrow=block;endSize=16;endFill=0;html=1;entryX=1;entryY=0.5;entryDx=0;entryDy=0;" parent="1" target="XRjCzqOPCwnfIwNAQ5aq-34" edge="1">
          <mxGeometry width="160" relative="1" as="geometry">
            <mxPoint x="360" y="431" as="sourcePoint" />
            <mxPoint x="420" y="360" as="targetPoint" />
          </mxGeometry>
        </mxCell>
        <mxCell id="XRjCzqOPCwnfIwNAQ5aq-18" value="ZipFileImpl" style="swimlane;fontStyle=1;align=center;verticalAlign=top;childLayout=stackLayout;horizontal=1;startSize=26;horizontalStack=0;resizeParent=1;resizeParentMax=0;resizeLast=0;collapsible=1;marginBottom=0;" parent="1" vertex="1">
          <mxGeometry x="360" y="510" width="180" height="130" as="geometry" />
        </mxCell>
        <mxCell id="XRjCzqOPCwnfIwNAQ5aq-19" value="+Â " style="text;strokeColor=none;fillColor=none;align=left;verticalAlign=top;spacingLeft=4;spacingRight=4;overflow=hidden;rotatable=0;points=[[0,0.5],[1,0.5]];portConstraint=eastwest;" parent="XRjCzqOPCwnfIwNAQ5aq-18" vertex="1">
          <mxGeometry y="26" width="180" height="26" as="geometry" />
        </mxCell>
        <mxCell id="XRjCzqOPCwnfIwNAQ5aq-20" value="" style="line;strokeWidth=1;fillColor=none;align=left;verticalAlign=middle;spacingTop=-1;spacingLeft=3;spacingRight=3;rotatable=0;labelPosition=right;points=[];portConstraint=eastwest;" parent="XRjCzqOPCwnfIwNAQ5aq-18" vertex="1">
          <mxGeometry y="52" width="180" height="8" as="geometry" />
        </mxCell>
        <mxCell id="XRjCzqOPCwnfIwNAQ5aq-21" value="+ read()&#xa;+ write()&#xa;+ zip()&#xa;+ unZip()" style="text;strokeColor=none;fillColor=none;align=left;verticalAlign=top;spacingLeft=4;spacingRight=4;overflow=hidden;rotatable=0;points=[[0,0.5],[1,0.5]];portConstraint=eastwest;" parent="XRjCzqOPCwnfIwNAQ5aq-18" vertex="1">
          <mxGeometry y="60" width="180" height="70" as="geometry" />
        </mxCell>
        <mxCell id="XRjCzqOPCwnfIwNAQ5aq-54" value="" style="line;strokeWidth=1;fillColor=none;align=left;verticalAlign=middle;spacingTop=-1;spacingLeft=3;spacingRight=3;rotatable=0;labelPosition=right;points=[];portConstraint=eastwest;" parent="1" vertex="1">
          <mxGeometry x="50" y="490" width="550" height="8" as="geometry" />
        </mxCell>
        <mxCell id="XRjCzqOPCwnfIwNAQ5aq-55" value="" style="line;strokeWidth=1;fillColor=none;align=left;verticalAlign=middle;spacingTop=-1;spacingLeft=3;spacingRight=3;rotatable=0;labelPosition=right;points=[];portConstraint=eastwest;" parent="1" vertex="1">
          <mxGeometry x="50" y="225" width="550" height="8" as="geometry" />
        </mxCell>
        <mxCell id="XRjCzqOPCwnfIwNAQ5aq-56" value="&lt;p style=&quot;margin: 0px ; margin-top: 4px ; text-align: center&quot;&gt;&lt;i&gt;&amp;lt;&amp;lt;Interface&amp;gt;&amp;gt;&lt;/i&gt;&lt;br&gt;&lt;b&gt;FileStrategy&lt;/b&gt;&lt;/p&gt;&lt;hr size=&quot;1&quot;&gt;&lt;p style=&quot;margin: 0px ; margin-left: 4px&quot;&gt;&lt;span&gt;+ someMethod()&lt;/span&gt;&lt;/p&gt;" style="verticalAlign=top;align=left;overflow=fill;fontSize=12;fontFamily=Helvetica;html=1;" parent="1" vertex="1">
          <mxGeometry x="354" y="100" width="190" height="90" as="geometry" />
        </mxCell>
        <mxCell id="XRjCzqOPCwnfIwNAQ5aq-57" value="" style="endArrow=block;dashed=1;endFill=0;endSize=12;html=1;entryX=0.5;entryY=1;entryDx=0;entryDy=0;exitX=0.5;exitY=0;exitDx=0;exitDy=0;" parent="1" source="XRjCzqOPCwnfIwNAQ5aq-2" target="XRjCzqOPCwnfIwNAQ5aq-56" edge="1">
          <mxGeometry width="160" relative="1" as="geometry">
            <mxPoint x="240" y="200" as="sourcePoint" />
            <mxPoint x="400" y="200" as="targetPoint" />
          </mxGeometry>
        </mxCell>
        <mxCell id="XRjCzqOPCwnfIwNAQ5aq-58" value="" style="endArrow=block;dashed=1;endFill=0;endSize=12;html=1;entryX=0.5;entryY=1;entryDx=0;entryDy=0;exitX=0.5;exitY=0;exitDx=0;exitDy=0;" parent="1" source="XRjCzqOPCwnfIwNAQ5aq-44" target="XRjCzqOPCwnfIwNAQ5aq-56" edge="1">
          <mxGeometry width="160" relative="1" as="geometry">
            <mxPoint x="210" y="270" as="sourcePoint" />
            <mxPoint x="370" y="270" as="targetPoint" />
          </mxGeometry>
        </mxCell>
        <mxCell id="XRjCzqOPCwnfIwNAQ5aq-44" value="ZipFileStrategy" style="swimlane;fontStyle=1;align=center;verticalAlign=top;childLayout=stackLayout;horizontal=1;startSize=26;horizontalStack=0;resizeParent=1;resizeParentMax=0;resizeLast=0;collapsible=1;marginBottom=0;" parent="1" vertex="1">
          <mxGeometry x="340" y="250" width="220" height="90" as="geometry" />
        </mxCell>
        <mxCell id="XRjCzqOPCwnfIwNAQ5aq-45" value="- ZipFile file" style="text;strokeColor=none;fillColor=none;align=left;verticalAlign=top;spacingLeft=4;spacingRight=4;overflow=hidden;rotatable=0;points=[[0,0.5],[1,0.5]];portConstraint=eastwest;" parent="XRjCzqOPCwnfIwNAQ5aq-44" vertex="1">
          <mxGeometry y="26" width="220" height="26" as="geometry" />
        </mxCell>
        <mxCell id="XRjCzqOPCwnfIwNAQ5aq-46" value="" style="line;strokeWidth=1;fillColor=none;align=left;verticalAlign=middle;spacingTop=-1;spacingLeft=3;spacingRight=3;rotatable=0;labelPosition=right;points=[];portConstraint=eastwest;" parent="XRjCzqOPCwnfIwNAQ5aq-44" vertex="1">
          <mxGeometry y="52" width="220" height="8" as="geometry" />
        </mxCell>
        <mxCell id="XRjCzqOPCwnfIwNAQ5aq-47" value="+ someMethod()" style="text;strokeColor=none;fillColor=none;align=left;verticalAlign=top;spacingLeft=4;spacingRight=4;overflow=hidden;rotatable=0;points=[[0,0.5],[1,0.5]];portConstraint=eastwest;" parent="XRjCzqOPCwnfIwNAQ5aq-44" vertex="1">
          <mxGeometry y="60" width="220" height="30" as="geometry" />
        </mxCell>
        <mxCell id="XRjCzqOPCwnfIwNAQ5aq-63" value="Use" style="endArrow=open;endSize=12;dashed=1;html=1;entryX=0;entryY=0.5;entryDx=0;entryDy=0;exitX=1.006;exitY=0.816;exitDx=0;exitDy=0;exitPerimeter=0;" parent="1" source="XRjCzqOPCwnfIwNAQ5aq-60" target="XRjCzqOPCwnfIwNAQ5aq-56" edge="1">
          <mxGeometry width="160" relative="1" as="geometry">
            <mxPoint x="180" y="200" as="sourcePoint" />
            <mxPoint x="340" y="200" as="targetPoint" />
          </mxGeometry>
        </mxCell>
        <mxCell id="XRjCzqOPCwnfIwNAQ5aq-59" value="FilePolicy" style="swimlane;fontStyle=1;align=center;verticalAlign=top;childLayout=stackLayout;horizontal=1;startSize=26;horizontalStack=0;resizeParent=1;resizeParentMax=0;resizeLast=0;collapsible=1;marginBottom=0;" parent="1" vertex="1">
          <mxGeometry x="91" y="98" width="160" height="86" as="geometry" />
        </mxCell>
        <mxCell id="XRjCzqOPCwnfIwNAQ5aq-60" value="+ field: type" style="text;strokeColor=none;fillColor=none;align=left;verticalAlign=top;spacingLeft=4;spacingRight=4;overflow=hidden;rotatable=0;points=[[0,0.5],[1,0.5]];portConstraint=eastwest;" parent="XRjCzqOPCwnfIwNAQ5aq-59" vertex="1">
          <mxGeometry y="26" width="160" height="26" as="geometry" />
        </mxCell>
        <mxCell id="XRjCzqOPCwnfIwNAQ5aq-61" value="" style="line;strokeWidth=1;fillColor=none;align=left;verticalAlign=middle;spacingTop=-1;spacingLeft=3;spacingRight=3;rotatable=0;labelPosition=right;points=[];portConstraint=eastwest;" parent="XRjCzqOPCwnfIwNAQ5aq-59" vertex="1">
          <mxGeometry y="52" width="160" height="8" as="geometry" />
        </mxCell>
        <mxCell id="XRjCzqOPCwnfIwNAQ5aq-62" value="+ method(type): type" style="text;strokeColor=none;fillColor=none;align=left;verticalAlign=top;spacingLeft=4;spacingRight=4;overflow=hidden;rotatable=0;points=[[0,0.5],[1,0.5]];portConstraint=eastwest;" parent="XRjCzqOPCwnfIwNAQ5aq-59" vertex="1">
          <mxGeometry y="60" width="160" height="26" as="geometry" />
        </mxCell>
      </root>
    </mxGraphModel>
  </diagram>
  <diagram id="nM8ifuNvzxCmuoxUgCa3" name="typical">
    <mxGraphModel dx="818" dy="817" grid="1" gridSize="10" guides="1" tooltips="1" connect="1" arrows="1" fold="1" page="1" pageScale="1" pageWidth="827" pageHeight="1169" math="0" shadow="0">
      <root>
        <mxCell id="UwNm8OMavEbE-WxNubak-0" />
        <mxCell id="UwNm8OMavEbE-WxNubak-1" parent="UwNm8OMavEbE-WxNubak-0" />
        <mxCell id="Ho7-z8bivYHjafDPNFEL-0" value="Use" style="endArrow=open;endSize=12;dashed=1;html=1;entryX=0;entryY=0.5;entryDx=0;entryDy=0;exitX=1;exitY=0.5;exitDx=0;exitDy=0;" edge="1" parent="UwNm8OMavEbE-WxNubak-1" source="Ho7-z8bivYHjafDPNFEL-2" target="Ho7-z8bivYHjafDPNFEL-6">
          <mxGeometry width="160" relative="1" as="geometry">
            <mxPoint x="260" y="442" as="sourcePoint" />
            <mxPoint x="434" y="387" as="targetPoint" />
          </mxGeometry>
        </mxCell>
        <mxCell id="Ho7-z8bivYHjafDPNFEL-1" value="FilePolicy" style="swimlane;fontStyle=1;align=center;verticalAlign=top;childLayout=stackLayout;horizontal=1;startSize=26;horizontalStack=0;resizeParent=1;resizeParentMax=0;resizeLast=0;collapsible=1;marginBottom=0;" vertex="1" parent="UwNm8OMavEbE-WxNubak-1">
          <mxGeometry x="130" y="520" width="160" height="86" as="geometry" />
        </mxCell>
        <mxCell id="Ho7-z8bivYHjafDPNFEL-2" value="+ fileHandler: FileHandler" style="text;strokeColor=none;fillColor=none;align=left;verticalAlign=top;spacingLeft=4;spacingRight=4;overflow=hidden;rotatable=0;points=[[0,0.5],[1,0.5]];portConstraint=eastwest;" vertex="1" parent="Ho7-z8bivYHjafDPNFEL-1">
          <mxGeometry y="26" width="160" height="26" as="geometry" />
        </mxCell>
        <mxCell id="Ho7-z8bivYHjafDPNFEL-3" value="" style="line;strokeWidth=1;fillColor=none;align=left;verticalAlign=middle;spacingTop=-1;spacingLeft=3;spacingRight=3;rotatable=0;labelPosition=right;points=[];portConstraint=eastwest;" vertex="1" parent="Ho7-z8bivYHjafDPNFEL-1">
          <mxGeometry y="52" width="160" height="8" as="geometry" />
        </mxCell>
        <mxCell id="Ho7-z8bivYHjafDPNFEL-4" value="+ execute() :void" style="text;strokeColor=none;fillColor=none;align=left;verticalAlign=top;spacingLeft=4;spacingRight=4;overflow=hidden;rotatable=0;points=[[0,0.5],[1,0.5]];portConstraint=eastwest;" vertex="1" parent="Ho7-z8bivYHjafDPNFEL-1">
          <mxGeometry y="60" width="160" height="26" as="geometry" />
        </mxCell>
        <mxCell id="Ho7-z8bivYHjafDPNFEL-5" value="FileHandler" style="swimlane;fontStyle=1;align=center;verticalAlign=top;childLayout=stackLayout;horizontal=1;startSize=26;horizontalStack=0;resizeParent=1;resizeParentMax=0;resizeLast=0;collapsible=1;marginBottom=0;" vertex="1" parent="UwNm8OMavEbE-WxNubak-1">
          <mxGeometry x="380" y="520" width="220" height="110" as="geometry" />
        </mxCell>
        <mxCell id="Ho7-z8bivYHjafDPNFEL-6" value="-Â " style="text;strokeColor=none;fillColor=none;align=left;verticalAlign=top;spacingLeft=4;spacingRight=4;overflow=hidden;rotatable=0;points=[[0,0.5],[1,0.5]];portConstraint=eastwest;" vertex="1" parent="Ho7-z8bivYHjafDPNFEL-5">
          <mxGeometry y="26" width="220" height="26" as="geometry" />
        </mxCell>
        <mxCell id="Ho7-z8bivYHjafDPNFEL-7" value="" style="line;strokeWidth=1;fillColor=none;align=left;verticalAlign=middle;spacingTop=-1;spacingLeft=3;spacingRight=3;rotatable=0;labelPosition=right;points=[];portConstraint=eastwest;" vertex="1" parent="Ho7-z8bivYHjafDPNFEL-5">
          <mxGeometry y="52" width="220" height="8" as="geometry" />
        </mxCell>
        <mxCell id="Ho7-z8bivYHjafDPNFEL-8" value="+ openFile() : void&#xa;+ zipFile() : void&#xa;+ unZipFile() : void" style="text;strokeColor=none;fillColor=none;align=left;verticalAlign=top;spacingLeft=4;spacingRight=4;overflow=hidden;rotatable=0;points=[[0,0.5],[1,0.5]];portConstraint=eastwest;" vertex="1" parent="Ho7-z8bivYHjafDPNFEL-5">
          <mxGeometry y="60" width="220" height="50" as="geometry" />
        </mxCell>
      </root>
    </mxGraphModel>
  </diagram>
  <diagram id="3srKX3ktXvNF9IdlIKsL" name="inversion2">
    <mxGraphModel dx="982" dy="980" grid="1" gridSize="10" guides="1" tooltips="1" connect="1" arrows="1" fold="1" page="1" pageScale="1" pageWidth="827" pageHeight="1169" math="0" shadow="0">
      <root>
        <mxCell id="NOa4C1i37Z8P1ks0_FWw-0" />
        <mxCell id="NOa4C1i37Z8P1ks0_FWw-1" parent="NOa4C1i37Z8P1ks0_FWw-0" />
        <mxCell id="hOyXxpE2SK2WwDvpsGrN-0" value="Use" style="endArrow=open;endSize=12;dashed=1;html=1;entryX=0;entryY=0.5;entryDx=0;entryDy=0;exitX=1;exitY=0.5;exitDx=0;exitDy=0;" edge="1" parent="NOa4C1i37Z8P1ks0_FWw-1" source="hOyXxpE2SK2WwDvpsGrN-2" target="nrXCpVrRZXlWQ_jZEpPO-0">
          <mxGeometry width="160" relative="1" as="geometry">
            <mxPoint x="260" y="442" as="sourcePoint" />
            <mxPoint x="434" y="387" as="targetPoint" />
          </mxGeometry>
        </mxCell>
        <mxCell id="nrXCpVrRZXlWQ_jZEpPO-0" value="&lt;p style=&quot;margin: 0px ; margin-top: 4px ; text-align: center&quot;&gt;&lt;i&gt;&amp;lt;&amp;lt;Interface&amp;gt;&amp;gt;&lt;/i&gt;&lt;br&gt;&lt;b&gt;FileHandler&lt;/b&gt;&lt;/p&gt;&lt;hr size=&quot;1&quot;&gt;&lt;p style=&quot;margin: 0px ; margin-left: 4px&quot;&gt;&lt;/p&gt;+ openFile() : void&lt;br style=&quot;padding: 0px ; margin: 0px&quot;&gt;+ zipFile() : void&lt;br style=&quot;padding: 0px ; margin: 0px&quot;&gt;+ unZipFile() : void" style="verticalAlign=top;align=left;overflow=fill;fontSize=12;fontFamily=Helvetica;html=1;" vertex="1" parent="NOa4C1i37Z8P1ks0_FWw-1">
          <mxGeometry x="300" y="531.5" width="190" height="99" as="geometry" />
        </mxCell>
        <mxCell id="hOyXxpE2SK2WwDvpsGrN-1" value="FilePolicy" style="swimlane;fontStyle=1;align=center;verticalAlign=top;childLayout=stackLayout;horizontal=1;startSize=26;horizontalStack=0;resizeParent=1;resizeParentMax=0;resizeLast=0;collapsible=1;marginBottom=0;" vertex="1" parent="NOa4C1i37Z8P1ks0_FWw-1">
          <mxGeometry x="40" y="542" width="160" height="86" as="geometry" />
        </mxCell>
        <mxCell id="hOyXxpE2SK2WwDvpsGrN-2" value="+ fileHandler: FileHandler" style="text;strokeColor=none;fillColor=none;align=left;verticalAlign=top;spacingLeft=4;spacingRight=4;overflow=hidden;rotatable=0;points=[[0,0.5],[1,0.5]];portConstraint=eastwest;" vertex="1" parent="hOyXxpE2SK2WwDvpsGrN-1">
          <mxGeometry y="26" width="160" height="26" as="geometry" />
        </mxCell>
        <mxCell id="hOyXxpE2SK2WwDvpsGrN-3" value="" style="line;strokeWidth=1;fillColor=none;align=left;verticalAlign=middle;spacingTop=-1;spacingLeft=3;spacingRight=3;rotatable=0;labelPosition=right;points=[];portConstraint=eastwest;" vertex="1" parent="hOyXxpE2SK2WwDvpsGrN-1">
          <mxGeometry y="52" width="160" height="8" as="geometry" />
        </mxCell>
        <mxCell id="hOyXxpE2SK2WwDvpsGrN-4" value="+ execute() :void" style="text;strokeColor=none;fillColor=none;align=left;verticalAlign=top;spacingLeft=4;spacingRight=4;overflow=hidden;rotatable=0;points=[[0,0.5],[1,0.5]];portConstraint=eastwest;" vertex="1" parent="hOyXxpE2SK2WwDvpsGrN-1">
          <mxGeometry y="60" width="160" height="26" as="geometry" />
        </mxCell>
        <mxCell id="hOyXxpE2SK2WwDvpsGrN-5" value="NormalFileHandler" style="swimlane;fontStyle=1;align=center;verticalAlign=top;childLayout=stackLayout;horizontal=1;startSize=26;horizontalStack=0;resizeParent=1;resizeParentMax=0;resizeLast=0;collapsible=1;marginBottom=0;" vertex="1" parent="NOa4C1i37Z8P1ks0_FWw-1">
          <mxGeometry x="580" y="527" width="220" height="110" as="geometry" />
        </mxCell>
        <mxCell id="hOyXxpE2SK2WwDvpsGrN-6" value="-Â " style="text;strokeColor=none;fillColor=none;align=left;verticalAlign=top;spacingLeft=4;spacingRight=4;overflow=hidden;rotatable=0;points=[[0,0.5],[1,0.5]];portConstraint=eastwest;" vertex="1" parent="hOyXxpE2SK2WwDvpsGrN-5">
          <mxGeometry y="26" width="220" height="26" as="geometry" />
        </mxCell>
        <mxCell id="hOyXxpE2SK2WwDvpsGrN-7" value="" style="line;strokeWidth=1;fillColor=none;align=left;verticalAlign=middle;spacingTop=-1;spacingLeft=3;spacingRight=3;rotatable=0;labelPosition=right;points=[];portConstraint=eastwest;" vertex="1" parent="hOyXxpE2SK2WwDvpsGrN-5">
          <mxGeometry y="52" width="220" height="8" as="geometry" />
        </mxCell>
        <mxCell id="hOyXxpE2SK2WwDvpsGrN-8" value="+ openFile() : void&#xa;+ zipFile() : void&#xa;+ unZipFile() : void" style="text;strokeColor=none;fillColor=none;align=left;verticalAlign=top;spacingLeft=4;spacingRight=4;overflow=hidden;rotatable=0;points=[[0,0.5],[1,0.5]];portConstraint=eastwest;" vertex="1" parent="hOyXxpE2SK2WwDvpsGrN-5">
          <mxGeometry y="60" width="220" height="50" as="geometry" />
        </mxCell>
        <mxCell id="nrXCpVrRZXlWQ_jZEpPO-2" value="" style="endArrow=block;dashed=1;endFill=0;endSize=12;html=1;entryX=1;entryY=0.5;entryDx=0;entryDy=0;exitX=-0.013;exitY=1.064;exitDx=0;exitDy=0;exitPerimeter=0;" edge="1" parent="NOa4C1i37Z8P1ks0_FWw-1" source="hOyXxpE2SK2WwDvpsGrN-6" target="nrXCpVrRZXlWQ_jZEpPO-0">
          <mxGeometry width="160" relative="1" as="geometry">
            <mxPoint x="330" y="500" as="sourcePoint" />
            <mxPoint x="490" y="500" as="targetPoint" />
          </mxGeometry>
        </mxCell>
      </root>
    </mxGraphModel>
  </diagram>
  <diagram id="WbaiMNxwZkVPvVQ40cv7" name="inversion3">
    <mxGraphModel dx="982" dy="980" grid="1" gridSize="10" guides="1" tooltips="1" connect="1" arrows="1" fold="1" page="1" pageScale="1" pageWidth="827" pageHeight="1169" math="0" shadow="0">
      <root>
        <mxCell id="r-i66Hx3dDnr3HhLEVBW-0" />
        <mxCell id="r-i66Hx3dDnr3HhLEVBW-1" parent="r-i66Hx3dDnr3HhLEVBW-0" />
        <mxCell id="r-i66Hx3dDnr3HhLEVBW-2" value="Complietime &lt;br&gt;Dependency" style="endArrow=open;endSize=12;dashed=1;html=1;entryX=0;entryY=0.5;entryDx=0;entryDy=0;exitX=1;exitY=0.5;exitDx=0;exitDy=0;fontStyle=1" edge="1" parent="r-i66Hx3dDnr3HhLEVBW-1" source="r-i66Hx3dDnr3HhLEVBW-7" target="r-i66Hx3dDnr3HhLEVBW-3">
          <mxGeometry width="160" relative="1" as="geometry">
            <mxPoint x="260" y="652" as="sourcePoint" />
            <mxPoint x="434" y="597" as="targetPoint" />
          </mxGeometry>
        </mxCell>
        <mxCell id="r-i66Hx3dDnr3HhLEVBW-3" value="&lt;p style=&quot;margin: 0px ; margin-top: 4px ; text-align: center&quot;&gt;&lt;i&gt;&amp;lt;&amp;lt;Interface&amp;gt;&amp;gt;&lt;/i&gt;&lt;br&gt;&lt;b&gt;FileHandler&lt;/b&gt;&lt;/p&gt;&lt;hr size=&quot;1&quot;&gt;&lt;p style=&quot;margin: 0px ; margin-left: 4px&quot;&gt;&lt;/p&gt;+ openFile() : void&lt;br style=&quot;padding: 0px ; margin: 0px&quot;&gt;+ zipFile() : void&lt;br style=&quot;padding: 0px ; margin: 0px&quot;&gt;+ unZipFile() : void" style="verticalAlign=top;align=left;overflow=fill;fontSize=12;fontFamily=Helvetica;html=1;" vertex="1" parent="r-i66Hx3dDnr3HhLEVBW-1">
          <mxGeometry x="300" y="741.5" width="190" height="99" as="geometry" />
        </mxCell>
        <mxCell id="r-i66Hx3dDnr3HhLEVBW-4" value="" style="endArrow=block;dashed=1;endFill=0;endSize=12;html=1;entryX=1;entryY=0.5;entryDx=0;entryDy=0;exitX=-0.013;exitY=1.064;exitDx=0;exitDy=0;exitPerimeter=0;" edge="1" parent="r-i66Hx3dDnr3HhLEVBW-1" source="r-i66Hx3dDnr3HhLEVBW-11" target="r-i66Hx3dDnr3HhLEVBW-3">
          <mxGeometry width="160" relative="1" as="geometry">
            <mxPoint x="330" y="710" as="sourcePoint" />
            <mxPoint x="490" y="710" as="targetPoint" />
          </mxGeometry>
        </mxCell>
        <mxCell id="r-i66Hx3dDnr3HhLEVBW-5" value="&amp;nbsp;Runtime Dependency" style="endArrow=open;endSize=12;dashed=1;html=1;entryX=0.5;entryY=0;entryDx=0;entryDy=0;exitX=0.5;exitY=0;exitDx=0;exitDy=0;fontStyle=1;fontColor=#FF2008;" edge="1" parent="r-i66Hx3dDnr3HhLEVBW-1" source="r-i66Hx3dDnr3HhLEVBW-6" target="r-i66Hx3dDnr3HhLEVBW-10">
          <mxGeometry width="160" relative="1" as="geometry">
            <mxPoint x="300" y="650" as="sourcePoint" />
            <mxPoint x="400" y="650" as="targetPoint" />
            <Array as="points">
              <mxPoint x="120" y="690" />
              <mxPoint x="690" y="690" />
            </Array>
          </mxGeometry>
        </mxCell>
        <mxCell id="r-i66Hx3dDnr3HhLEVBW-6" value="FilePolicy" style="swimlane;fontStyle=1;align=center;verticalAlign=top;childLayout=stackLayout;horizontal=1;startSize=26;horizontalStack=0;resizeParent=1;resizeParentMax=0;resizeLast=0;collapsible=1;marginBottom=0;" vertex="1" parent="r-i66Hx3dDnr3HhLEVBW-1">
          <mxGeometry x="40" y="752" width="160" height="86" as="geometry" />
        </mxCell>
        <mxCell id="r-i66Hx3dDnr3HhLEVBW-7" value="+ fileHandler: FileHandler" style="text;strokeColor=none;fillColor=none;align=left;verticalAlign=top;spacingLeft=4;spacingRight=4;overflow=hidden;rotatable=0;points=[[0,0.5],[1,0.5]];portConstraint=eastwest;" vertex="1" parent="r-i66Hx3dDnr3HhLEVBW-6">
          <mxGeometry y="26" width="160" height="26" as="geometry" />
        </mxCell>
        <mxCell id="r-i66Hx3dDnr3HhLEVBW-8" value="" style="line;strokeWidth=1;fillColor=none;align=left;verticalAlign=middle;spacingTop=-1;spacingLeft=3;spacingRight=3;rotatable=0;labelPosition=right;points=[];portConstraint=eastwest;" vertex="1" parent="r-i66Hx3dDnr3HhLEVBW-6">
          <mxGeometry y="52" width="160" height="8" as="geometry" />
        </mxCell>
        <mxCell id="r-i66Hx3dDnr3HhLEVBW-9" value="+ execute() :void" style="text;strokeColor=none;fillColor=none;align=left;verticalAlign=top;spacingLeft=4;spacingRight=4;overflow=hidden;rotatable=0;points=[[0,0.5],[1,0.5]];portConstraint=eastwest;" vertex="1" parent="r-i66Hx3dDnr3HhLEVBW-6">
          <mxGeometry y="60" width="160" height="26" as="geometry" />
        </mxCell>
        <mxCell id="r-i66Hx3dDnr3HhLEVBW-10" value="NormalFileHandler" style="swimlane;fontStyle=1;align=center;verticalAlign=top;childLayout=stackLayout;horizontal=1;startSize=26;horizontalStack=0;resizeParent=1;resizeParentMax=0;resizeLast=0;collapsible=1;marginBottom=0;" vertex="1" parent="r-i66Hx3dDnr3HhLEVBW-1">
          <mxGeometry x="580" y="737" width="220" height="110" as="geometry" />
        </mxCell>
        <mxCell id="r-i66Hx3dDnr3HhLEVBW-11" value="-Â " style="text;strokeColor=none;fillColor=none;align=left;verticalAlign=top;spacingLeft=4;spacingRight=4;overflow=hidden;rotatable=0;points=[[0,0.5],[1,0.5]];portConstraint=eastwest;" vertex="1" parent="r-i66Hx3dDnr3HhLEVBW-10">
          <mxGeometry y="26" width="220" height="26" as="geometry" />
        </mxCell>
        <mxCell id="r-i66Hx3dDnr3HhLEVBW-12" value="" style="line;strokeWidth=1;fillColor=none;align=left;verticalAlign=middle;spacingTop=-1;spacingLeft=3;spacingRight=3;rotatable=0;labelPosition=right;points=[];portConstraint=eastwest;" vertex="1" parent="r-i66Hx3dDnr3HhLEVBW-10">
          <mxGeometry y="52" width="220" height="8" as="geometry" />
        </mxCell>
        <mxCell id="r-i66Hx3dDnr3HhLEVBW-13" value="+ openFile() : void&#xa;+ zipFile() : void&#xa;+ unZipFile() : void" style="text;strokeColor=none;fillColor=none;align=left;verticalAlign=top;spacingLeft=4;spacingRight=4;overflow=hidden;rotatable=0;points=[[0,0.5],[1,0.5]];portConstraint=eastwest;" vertex="1" parent="r-i66Hx3dDnr3HhLEVBW-10">
          <mxGeometry y="60" width="220" height="50" as="geometry" />
        </mxCell>
      </root>
    </mxGraphModel>
  </diagram>
  <diagram id="rq9yyKs9o46aGH-987Si" name="dependency">
    <mxGraphModel dx="982" dy="980" grid="1" gridSize="10" guides="1" tooltips="1" connect="1" arrows="1" fold="1" page="1" pageScale="1" pageWidth="827" pageHeight="1169" math="0" shadow="0">
      <root>
        <mxCell id="T_2TjrLVZv4DJIWUHxVM-0" />
        <mxCell id="T_2TjrLVZv4DJIWUHxVM-1" parent="T_2TjrLVZv4DJIWUHxVM-0" />
        <mxCell id="T_2TjrLVZv4DJIWUHxVM-2" value="A" style="swimlane;fontStyle=1;align=center;verticalAlign=top;childLayout=stackLayout;horizontal=1;startSize=26;horizontalStack=0;resizeParent=1;resizeParentMax=0;resizeLast=0;collapsible=1;marginBottom=0;" vertex="1" parent="T_2TjrLVZv4DJIWUHxVM-1">
          <mxGeometry x="180" y="190" width="70" height="52" as="geometry" />
        </mxCell>
        <mxCell id="T_2TjrLVZv4DJIWUHxVM-3" value="- b :B" style="text;strokeColor=none;fillColor=none;align=left;verticalAlign=top;spacingLeft=4;spacingRight=4;overflow=hidden;rotatable=0;points=[[0,0.5],[1,0.5]];portConstraint=eastwest;" vertex="1" parent="T_2TjrLVZv4DJIWUHxVM-2">
          <mxGeometry y="26" width="70" height="26" as="geometry" />
        </mxCell>
        <mxCell id="T_2TjrLVZv4DJIWUHxVM-6" value="B" style="swimlane;fontStyle=1;align=center;verticalAlign=top;childLayout=stackLayout;horizontal=1;startSize=26;horizontalStack=0;resizeParent=1;resizeParentMax=0;resizeLast=0;collapsible=1;marginBottom=0;" vertex="1" parent="T_2TjrLVZv4DJIWUHxVM-1">
          <mxGeometry x="344" y="190" width="70" height="52" as="geometry" />
        </mxCell>
        <mxCell id="T_2TjrLVZv4DJIWUHxVM-8" value="Use" style="endArrow=open;endSize=12;dashed=1;html=1;entryX=0;entryY=0.5;entryDx=0;entryDy=0;exitX=1;exitY=0.5;exitDx=0;exitDy=0;" edge="1" parent="T_2TjrLVZv4DJIWUHxVM-1" source="T_2TjrLVZv4DJIWUHxVM-2" target="T_2TjrLVZv4DJIWUHxVM-6">
          <mxGeometry width="160" relative="1" as="geometry">
            <mxPoint x="330" y="310" as="sourcePoint" />
            <mxPoint x="490" y="310" as="targetPoint" />
          </mxGeometry>
        </mxCell>
      </root>
    </mxGraphModel>
  </diagram>
  <diagram id="FJ3P1eD6NpmKBs_M_ARo" name="typical-file">
    <mxGraphModel dx="982" dy="980" grid="1" gridSize="10" guides="1" tooltips="1" connect="1" arrows="1" fold="1" page="1" pageScale="1" pageWidth="827" pageHeight="1169" math="0" shadow="0">
      <root>
        <mxCell id="TXygeXQVQV7W4E0prMUZ-0" />
        <mxCell id="TXygeXQVQV7W4E0prMUZ-1" parent="TXygeXQVQV7W4E0prMUZ-0" />
        <mxCell id="TXygeXQVQV7W4E0prMUZ-4" value="Use" style="endArrow=open;endSize=12;dashed=1;html=1;entryX=0;entryY=0.5;entryDx=0;entryDy=0;exitX=1;exitY=0.5;exitDx=0;exitDy=0;" edge="1" parent="TXygeXQVQV7W4E0prMUZ-1" source="TXygeXQVQV7W4E0prMUZ-6" target="TXygeXQVQV7W4E0prMUZ-10">
          <mxGeometry width="160" relative="1" as="geometry">
            <mxPoint x="260" y="122" as="sourcePoint" />
            <mxPoint x="434" y="67" as="targetPoint" />
          </mxGeometry>
        </mxCell>
        <mxCell id="TXygeXQVQV7W4E0prMUZ-5" value="FilePolicy" style="swimlane;fontStyle=1;align=center;verticalAlign=top;childLayout=stackLayout;horizontal=1;startSize=26;horizontalStack=0;resizeParent=1;resizeParentMax=0;resizeLast=0;collapsible=1;marginBottom=0;" vertex="1" parent="TXygeXQVQV7W4E0prMUZ-1">
          <mxGeometry x="130" y="200" width="160" height="86" as="geometry" />
        </mxCell>
        <mxCell id="TXygeXQVQV7W4E0prMUZ-6" value="+ fileHandler: FileHandler" style="text;strokeColor=none;fillColor=none;align=left;verticalAlign=top;spacingLeft=4;spacingRight=4;overflow=hidden;rotatable=0;points=[[0,0.5],[1,0.5]];portConstraint=eastwest;" vertex="1" parent="TXygeXQVQV7W4E0prMUZ-5">
          <mxGeometry y="26" width="160" height="26" as="geometry" />
        </mxCell>
        <mxCell id="TXygeXQVQV7W4E0prMUZ-7" value="" style="line;strokeWidth=1;fillColor=none;align=left;verticalAlign=middle;spacingTop=-1;spacingLeft=3;spacingRight=3;rotatable=0;labelPosition=right;points=[];portConstraint=eastwest;" vertex="1" parent="TXygeXQVQV7W4E0prMUZ-5">
          <mxGeometry y="52" width="160" height="8" as="geometry" />
        </mxCell>
        <mxCell id="TXygeXQVQV7W4E0prMUZ-8" value="+ execute() :void" style="text;strokeColor=none;fillColor=none;align=left;verticalAlign=top;spacingLeft=4;spacingRight=4;overflow=hidden;rotatable=0;points=[[0,0.5],[1,0.5]];portConstraint=eastwest;" vertex="1" parent="TXygeXQVQV7W4E0prMUZ-5">
          <mxGeometry y="60" width="160" height="26" as="geometry" />
        </mxCell>
        <mxCell id="TXygeXQVQV7W4E0prMUZ-9" value="FileHandler" style="swimlane;fontStyle=1;align=center;verticalAlign=top;childLayout=stackLayout;horizontal=1;startSize=26;horizontalStack=0;resizeParent=1;resizeParentMax=0;resizeLast=0;collapsible=1;marginBottom=0;" vertex="1" parent="TXygeXQVQV7W4E0prMUZ-1">
          <mxGeometry x="380" y="200" width="220" height="90" as="geometry" />
        </mxCell>
        <mxCell id="TXygeXQVQV7W4E0prMUZ-10" value="-Â " style="text;strokeColor=none;fillColor=none;align=left;verticalAlign=top;spacingLeft=4;spacingRight=4;overflow=hidden;rotatable=0;points=[[0,0.5],[1,0.5]];portConstraint=eastwest;" vertex="1" parent="TXygeXQVQV7W4E0prMUZ-9">
          <mxGeometry y="26" width="220" height="26" as="geometry" />
        </mxCell>
        <mxCell id="TXygeXQVQV7W4E0prMUZ-11" value="" style="line;strokeWidth=1;fillColor=none;align=left;verticalAlign=middle;spacingTop=-1;spacingLeft=3;spacingRight=3;rotatable=0;labelPosition=right;points=[];portConstraint=eastwest;" vertex="1" parent="TXygeXQVQV7W4E0prMUZ-9">
          <mxGeometry y="52" width="220" height="8" as="geometry" />
        </mxCell>
        <mxCell id="TXygeXQVQV7W4E0prMUZ-12" value="+ openFile() : void" style="text;strokeColor=none;fillColor=none;align=left;verticalAlign=top;spacingLeft=4;spacingRight=4;overflow=hidden;rotatable=0;points=[[0,0.5],[1,0.5]];portConstraint=eastwest;" vertex="1" parent="TXygeXQVQV7W4E0prMUZ-9">
          <mxGeometry y="60" width="220" height="30" as="geometry" />
        </mxCell>
      </root>
    </mxGraphModel>
  </diagram>
  <diagram id="fdOENEAd1qDwpaujEt2k" name="layer">
    <mxGraphModel dx="982" dy="656" grid="1" gridSize="10" guides="1" tooltips="1" connect="1" arrows="1" fold="1" page="1" pageScale="1" pageWidth="827" pageHeight="1169" math="0" shadow="0">
      <root>
        <mxCell id="BSZVXex7VE2cUxWYn5xu-0" />
        <mxCell id="BSZVXex7VE2cUxWYn5xu-1" parent="BSZVXex7VE2cUxWYn5xu-0" />
        <mxCell id="D4IKTK1f36FwPscKhuWc-31" value="" style="rounded=1;whiteSpace=wrap;html=1;fontColor=#000000;glass=0;sketch=0;" vertex="1" parent="BSZVXex7VE2cUxWYn5xu-1">
          <mxGeometry x="60" y="430" width="620" height="100" as="geometry" />
        </mxCell>
        <mxCell id="D4IKTK1f36FwPscKhuWc-30" value="" style="rounded=1;whiteSpace=wrap;html=1;fontColor=#000000;glass=0;sketch=0;" vertex="1" parent="BSZVXex7VE2cUxWYn5xu-1">
          <mxGeometry x="60" y="191" width="620" height="110" as="geometry" />
        </mxCell>
        <mxCell id="D4IKTK1f36FwPscKhuWc-29" value="" style="rounded=1;whiteSpace=wrap;html=1;fontColor=#000000;glass=0;sketch=0;" vertex="1" parent="BSZVXex7VE2cUxWYn5xu-1">
          <mxGeometry x="60" y="310" width="620" height="110" as="geometry" />
        </mxCell>
        <mxCell id="D4IKTK1f36FwPscKhuWc-11" value="Policy Layer" style="swimlane;fontStyle=1;childLayout=stackLayout;horizontal=1;startSize=26;fillColor=none;horizontalStack=0;resizeParent=1;resizeParentMax=0;resizeLast=0;collapsible=1;marginBottom=0;" vertex="1" parent="BSZVXex7VE2cUxWYn5xu-1">
          <mxGeometry x="90" y="220" width="140" height="52" as="geometry" />
        </mxCell>
        <mxCell id="D4IKTK1f36FwPscKhuWc-12" value="ê³ ìì¤ ëª¨ë" style="text;strokeColor=none;fillColor=none;align=left;verticalAlign=top;spacingLeft=4;spacingRight=4;overflow=hidden;rotatable=0;points=[[0,0.5],[1,0.5]];portConstraint=eastwest;" vertex="1" parent="D4IKTK1f36FwPscKhuWc-11">
          <mxGeometry y="26" width="140" height="26" as="geometry" />
        </mxCell>
        <mxCell id="D4IKTK1f36FwPscKhuWc-17" value="Â«interfaceÂ»&lt;br&gt;&lt;b&gt;Mechanisim Interface&lt;/b&gt;" style="html=1;fontColor=#000000;" vertex="1" parent="BSZVXex7VE2cUxWYn5xu-1">
          <mxGeometry x="290" y="220" width="150" height="50" as="geometry" />
        </mxCell>
        <mxCell id="D4IKTK1f36FwPscKhuWc-18" value="Mechanism Layer" style="swimlane;fontStyle=1;childLayout=stackLayout;horizontal=1;startSize=26;fillColor=none;horizontalStack=0;resizeParent=1;resizeParentMax=0;resizeLast=0;collapsible=1;marginBottom=0;" vertex="1" parent="BSZVXex7VE2cUxWYn5xu-1">
          <mxGeometry x="280" y="330" width="170" height="70" as="geometry" />
        </mxCell>
        <mxCell id="D4IKTK1f36FwPscKhuWc-19" value="ê³ ìì¤ ëªë ¹ì ì ìì¤ ëª¨ëì &#xa;íì´ì í ë¹íë ëª¨ë" style="text;strokeColor=none;fillColor=none;align=left;verticalAlign=top;spacingLeft=4;spacingRight=4;overflow=hidden;rotatable=0;points=[[0,0.5],[1,0.5]];portConstraint=eastwest;" vertex="1" parent="D4IKTK1f36FwPscKhuWc-18">
          <mxGeometry y="26" width="170" height="44" as="geometry" />
        </mxCell>
        <mxCell id="D4IKTK1f36FwPscKhuWc-20" value="Utility Layer" style="swimlane;fontStyle=1;childLayout=stackLayout;horizontal=1;startSize=26;fillColor=none;horizontalStack=0;resizeParent=1;resizeParentMax=0;resizeLast=0;collapsible=1;marginBottom=0;" vertex="1" parent="BSZVXex7VE2cUxWYn5xu-1">
          <mxGeometry x="509" y="444" width="160" height="70" as="geometry" />
        </mxCell>
        <mxCell id="D4IKTK1f36FwPscKhuWc-21" value="ê°ë³ì ì¸ ê¸°ë¥ì ìííë&#xa;ì ìì¤ ëª¨ë" style="text;strokeColor=none;fillColor=none;align=left;verticalAlign=top;spacingLeft=4;spacingRight=4;overflow=hidden;rotatable=0;points=[[0,0.5],[1,0.5]];portConstraint=eastwest;" vertex="1" parent="D4IKTK1f36FwPscKhuWc-20">
          <mxGeometry y="26" width="160" height="44" as="geometry" />
        </mxCell>
        <mxCell id="D4IKTK1f36FwPscKhuWc-22" value="Â«interfaceÂ»&lt;br&gt;&lt;b&gt;Utility Interface&lt;/b&gt;" style="html=1;fontColor=#000000;" vertex="1" parent="BSZVXex7VE2cUxWYn5xu-1">
          <mxGeometry x="514" y="333" width="150" height="50" as="geometry" />
        </mxCell>
        <mxCell id="D4IKTK1f36FwPscKhuWc-23" value="Use" style="endArrow=open;endSize=12;dashed=1;html=1;fontColor=#000000;entryX=0;entryY=0.5;entryDx=0;entryDy=0;exitX=1.041;exitY=0.013;exitDx=0;exitDy=0;exitPerimeter=0;" edge="1" parent="BSZVXex7VE2cUxWYn5xu-1" source="D4IKTK1f36FwPscKhuWc-12" target="D4IKTK1f36FwPscKhuWc-17">
          <mxGeometry width="160" relative="1" as="geometry">
            <mxPoint x="100" y="320" as="sourcePoint" />
            <mxPoint x="260" y="320" as="targetPoint" />
          </mxGeometry>
        </mxCell>
        <mxCell id="D4IKTK1f36FwPscKhuWc-24" value="Use" style="endArrow=open;endSize=12;dashed=1;html=1;fontColor=#000000;entryX=0;entryY=0.5;entryDx=0;entryDy=0;exitX=1.005;exitY=0.053;exitDx=0;exitDy=0;exitPerimeter=0;" edge="1" parent="BSZVXex7VE2cUxWYn5xu-1" source="D4IKTK1f36FwPscKhuWc-19" target="D4IKTK1f36FwPscKhuWc-22">
          <mxGeometry width="160" relative="1" as="geometry">
            <mxPoint x="490" y="321.33799999999997" as="sourcePoint" />
            <mxPoint x="544.26" y="320" as="targetPoint" />
          </mxGeometry>
        </mxCell>
        <mxCell id="D4IKTK1f36FwPscKhuWc-26" value="" style="endArrow=block;dashed=1;endFill=0;endSize=12;html=1;strokeColor=#000000;fontColor=#000000;entryX=0.5;entryY=1;entryDx=0;entryDy=0;exitX=0.5;exitY=0;exitDx=0;exitDy=0;" edge="1" parent="BSZVXex7VE2cUxWYn5xu-1" source="D4IKTK1f36FwPscKhuWc-18" target="D4IKTK1f36FwPscKhuWc-17">
          <mxGeometry width="160" relative="1" as="geometry">
            <mxPoint x="330" y="340" as="sourcePoint" />
            <mxPoint x="490" y="340" as="targetPoint" />
          </mxGeometry>
        </mxCell>
        <mxCell id="D4IKTK1f36FwPscKhuWc-27" value="" style="endArrow=block;dashed=1;endFill=0;endSize=12;html=1;strokeColor=#000000;fontColor=#000000;entryX=0.5;entryY=1;entryDx=0;entryDy=0;exitX=0.5;exitY=0;exitDx=0;exitDy=0;" edge="1" parent="BSZVXex7VE2cUxWYn5xu-1" source="D4IKTK1f36FwPscKhuWc-20" target="D4IKTK1f36FwPscKhuWc-22">
          <mxGeometry width="160" relative="1" as="geometry">
            <mxPoint x="375" y="340" as="sourcePoint" />
            <mxPoint x="375" y="280" as="targetPoint" />
          </mxGeometry>
        </mxCell>
      </root>
    </mxGraphModel>
  </diagram>
</mxfile>
